<?xml version="1.0" encoding="UTF-8"?>
<svg version="1.1" xmlns="http://www.w3.org/2000/svg" width="40" height="40">
<path d="M0 0 C4.73632812 2.39257812 4.73632812 2.39257812 9.47265625 4.78515625 C15.39416263 6.82456764 20.2886927 5.08950267 26 3 C26 4.32 26 5.64 26 7 C19.1939886 11.02487476 19.1939886 11.02487476 15 10.9375 C11.26273661 9.76960519 7.64051606 8.44365292 4 7 C5.21308882 10.63926645 6.79433853 11.4555957 10.11328125 13.19921875 C13.86220287 14.79037596 16.61047405 14.53021385 20.375 13.09375 C22.61320718 12.11453436 24.81318786 11.08854649 27 10 C26.938125 8.906875 26.87625 7.81375 26.8125 6.6875 C27 3 27 3 28.4375 1.0625 C30 0 30 0 31 0 C31 6.27 31 12.54 31 19 C27.4421875 21.0109375 27.4421875 21.0109375 23.8125 23.0625 C23.07491455 23.48926025 22.3373291 23.91602051 21.57739258 24.35571289 C16.70927964 27.02676527 16.70927964 27.02676527 13.30859375 26.8984375 C10.83535919 25.93592659 8.56106114 24.86925772 6.25 23.5625 C5.08210937 22.91474609 5.08210937 22.91474609 3.890625 22.25390625 C2 21 2 21 1 19 C3 18.25 3 18.25 6 18 C7.9375 18.89453125 7.9375 18.89453125 10 20.0625 C13.065161 21.81147374 13.065161 21.81147374 16.5 21.5 C17.325 21.005 18.15 20.51 19 20 C20.4338952 19.28439752 21.87165228 18.57649854 23.3125 17.875 C24.54266164 17.25196065 25.77217138 16.62762455 27 16 C27 15.34 27 14.68 27 14 C26.2265625 14.47953125 25.453125 14.9590625 24.65625 15.453125 C16.19493354 20.2702111 16.19493354 20.2702111 12.66796875 19.47265625 C10.6875 18.3125 10.6875 18.3125 9.01171875 16.98828125 C6.31204252 15.42753131 6.31204252 15.42753131 0 17 C0 11.39 0 5.78 0 0 Z " fill="#FD6B11" transform="translate(5,6)"/>
</svg>
